Coordinates
version=1
nRows=28
nColumns=23
inDegrees=yes

Units are S.I. units (second, meters, Newtons, ...)
If the header above contains a line with 'inDegrees', this indicates whether rotational values are in degrees (yes) or radians (no).

endheader
time	pelvis_tilt	pelvis_list	pelvis_rotation	pelvis_tx	pelvis_ty	pelvis_tz	hip_flexion_r	hip_adduction_r	hip_rotation_r	knee_angle_r	knee_angle_r_beta	ankle_angle_r	subtalar_angle_r	mtp_angle_r	hip_flexion_l	hip_adduction_l	hip_rotation_l	knee_angle_l	knee_angle_l_beta	ankle_angle_l	subtalar_angle_l	mtp_angle_l
     22.50000000	     -9.13892853	     -4.72546979	      5.65456681	      2.28452277	      1.03007796	      0.97854796	     33.77473556	      4.78036865	      0.51084666	     11.20422530	      0.19555062	      5.52832840	     -1.24401460	      0.00000000	    -11.41594771	     -5.66419023	     -3.02199843	     33.62510651	      0.58686882	    -24.73269055	     -4.22248573	      0.00000000
     22.50666667	     -9.02417004	     -4.55837923	      5.50973969	      2.28433964	      1.02944930	      0.97879310	     32.89297054	      4.83729775	      1.51130192	      9.09779660	      0.15878651	      5.62071574	     -0.44265265	      0.00000000	    -10.72516733	     -5.40510197	     -2.51805544	     37.26119154	      0.65033048	    -24.35590981	     -5.19625309	      0.00000000
     22.51333333	     -8.76781842	     -4.40962870	      5.26119306	      2.28415482	      1.02856241	      0.97903391	     31.81306979	      5.00373460	      2.96177542	      7.23879449	      0.12634080	      5.33247813	     -1.02592637	      0.00000000	    -10.15682467	     -5.11883956	     -2.11789094	     40.94196948	      0.71457217	    -23.87977200	     -5.98177655	      0.00000000
     22.52000000	     -8.43241440	     -4.30734603	      4.99664797	      2.28398055	      1.02729565	      0.97936298	     30.95421208	      5.15656887	      3.39166919	      6.31437976	      0.11020672	      5.39404385	     -0.82422351	      0.00000000	     -9.60770844	     -4.88754540	     -1.80197974	     44.69485359	      0.78007235	    -23.38287971	     -6.64942153	      0.00000000
     22.52666667	     -7.92812965	     -4.25811304	      4.64528270	      2.28388316	      1.02582325	      0.97979497	     30.03395201	      5.42658163	      3.61170428	      5.96680123	      0.10414033	      5.52197313	     -0.85656237	      0.00000000	     -9.22551629	     -4.72537976	     -1.67641497	     48.42602736	      0.84519362	    -22.98715035	     -7.31295856	      0.00000000
     22.53333333	     -7.38332274	     -4.31211532	      4.29913568	      2.28376696	      1.02396270	      0.98027685	     29.14911526	      5.80391416	      3.61380772	      6.06513905	      0.10585665	      5.47870146	     -1.23451741	      0.00000000	     -8.80827387	     -4.71314169	     -1.65901671	     52.21078956	      0.91125018	    -22.64280207	     -7.76208262	      0.00000000
     22.54000000	     -6.86441347	     -4.36654193	      3.94933150	      2.28365424	      1.02165747	      0.98081955	     28.38261862	      6.18650042	      3.49120698	      6.65754950	      0.11619616	      5.35085302	     -1.83769649	      0.00000000	     -8.29752633	     -4.80313336	     -1.85060892	     56.02367730	      0.97779763	    -22.39918173	     -7.93726784	      0.00000000
     22.54666667	     -6.12731944	     -4.51463976	      3.52755691	      2.28365163	      1.01918303	      0.98150406	     27.44684387	      6.70814831	      3.24342816	      7.66558279	      0.13378966	      5.18491297	     -2.42744754	      0.00000000	     -8.04384594	     -5.00049870	     -2.14022840	     59.72443128	      1.04238797	    -22.23921797	     -8.45213112	      0.00000000
     22.55333333	     -5.43372322	     -4.71110874	      3.12690261	      2.28361321	      1.01619185	      0.98218344	     26.66074463	      7.23726279	      2.85825649	      9.11343571	      0.15905946	      4.88386522	     -3.08655107	      0.00000000	     -7.68235430	     -5.32738332	     -2.51001810	     63.44138963	      1.10726113	    -22.12473383	     -8.86169491	      0.00000000
     22.56000000	     -5.24848577	     -4.83563579	      2.71634448	      2.28329181	      1.01208936	      0.98302467	     26.77960648	      7.57898018	      1.87081538	     11.46838979	      0.20016116	      4.99297795	     -2.94113246	      0.00000000	     -6.64525898	     -5.61046914	     -2.85912779	     67.28460153	      1.17433783	    -21.88145908	     -8.92638140	      0.00000000
     22.56666667	     -4.54499858	     -5.09977344	      2.34760247	      2.28314044	      1.00831685	      0.98377243	     26.10818689	      8.11613860	      1.43038256	     13.54210738	      0.23635436	      4.46863236	     -3.72938866	      0.00000000	     -6.22303807	     -6.10190115	     -3.25155842	     70.89307670	      1.23731761	    -21.73925762	     -9.47131524	      0.00000000
     22.57333333	     -4.42379166	     -5.23732488	      1.94374925	      2.28265181	      1.00337757	      0.98459745	     26.35045456	      8.43017384	      0.76472917	     16.31342447	      0.28472297	      4.13807438	     -4.24193833	      0.00000000	     -5.04531743	     -6.44920310	     -3.56794536	     74.60975135	      1.30218582	    -21.30359710	     -9.88348004	      0.00000000
     22.58000000	     -3.61153394	     -5.57873623	      1.59988125	      2.28235012	      0.99908133	      0.98537229	     25.64983594	      8.97988452	      0.26285693	     18.79839546	      0.32809389	      3.47119421	     -5.01073579	      0.00000000	     -4.70308998	     -7.13695334	     -3.98686828	     78.03030713	      1.36188578	    -20.91440577	    -10.65442849	      0.00000000
     22.58666667	     -4.00059567	     -5.62041496	      1.29644049	      2.28137425	      0.99288415	      0.98609612	     26.72514741	      9.02493532	     -0.60141334	     22.31779970	      0.38951909	      3.77139291	     -5.18612647	      0.00000000	     -2.77362165	     -7.39516367	     -4.03892881	     81.72433426	      1.42635871	    -20.22541590	    -11.10358947	      0.00000000
     22.59333333	     -3.92700669	     -5.76642993	      1.02001895	      2.28046034	      0.98717329	      0.98680502	     27.15693336	      9.17013240	     -1.43400177	     25.64050259	      0.44751119	      4.15241962	     -5.34977891	      0.00000000	     -1.37825399	     -7.85442257	     -4.16056337	     85.16441516	      1.48639945	    -19.46534666	    -11.72941308	      0.00000000
     22.60000000	     -3.93769185	     -5.87528172	      0.82633729	      2.27927385	      0.98124843	      0.98741326	     27.70494823	      9.22647475	     -2.19937429	     29.07160480	      0.50739522	      5.00794303	     -5.38181548	      0.00000000	      0.21627707	     -8.30327844	     -4.15718209	     88.51538356	      1.54488488	    -18.61285382	    -12.30436665	      0.00000000
     22.60666667	     -3.90628640	     -5.97072967	      0.68087982	      2.27788605	      0.97542116	      0.98798529	     28.11538070	      9.30800964	     -2.69278507	     32.39794833	      0.56545087	      6.30249819	     -5.57983198	      0.00000000	      1.85626260	     -8.77364755	     -4.08657569	     91.72235129	      1.60085703	    -17.68292958	    -12.73770864	      0.00000000
     22.61333333	     -3.92686902	     -6.04073219	      0.60706373	      2.27629976	      0.96966283	      0.98845865	     28.48969911	      9.31277661	     -3.20503333	     35.61239422	      0.62155353	      8.00093347	     -5.46097727	      0.00000000	      3.66571702	     -9.21486827	     -3.88721951	     94.78361926	      1.65428623	    -16.71853667	    -13.09212988	      0.00000000
     22.62000000	     -3.95867421	     -6.08223480	      0.60753724	      2.27455291	      0.96415491	      0.98879518	     28.70539821	      9.25915947	     -3.68063960	     38.57065995	      0.67318501	     10.01895763	     -5.07969723	      0.00000000	      5.60999243	     -9.61412932	     -3.56853624	     97.66338017	      1.70454754	    -15.73679006	    -13.28951692	      0.00000000
     22.62666667	     -3.89702594	     -6.12830637	      0.69675922	      2.27264840	      0.95913008	      0.98901348	     28.59585073	      9.20878335	     -4.06805018	     41.15912931	      0.71836232	     12.17808584	     -4.57597418	      0.00000000	      7.57256914	     -9.99838117	     -3.12701722	    100.32385406	      1.75098157	    -14.77172899	    -13.35748275	      0.00000000
     22.63333333	     -3.80115719	     -6.18256328	      0.82113444	      2.27060609	      0.95463362	      0.98917804	     28.18350267	      9.24059267	     -4.24639663	     43.28554378	      0.75547526	     14.38190798	     -4.16189328	      0.00000000	      9.60739539	    -10.34993617	     -2.59162050	    102.73901211	      1.79313403	    -13.82575019	    -13.19700194	      0.00000000
     22.64000000	     -3.72125985	     -6.21765955	      0.96852239	      2.26843186	      0.95069147	      0.98924907	     27.52576481	      9.27611472	     -4.34583645	     44.95527743	      0.78461761	     16.51846052	     -3.67834663	      0.00000000	     11.77047486	    -10.62634255	     -1.99047635	    104.89263507	      1.83072184	    -12.88097510	    -12.82511283	      0.00000000
     22.64666667	     -3.54208352	     -6.27316150	      1.09895609	      2.26624295	      0.94746622	      0.98935955	     26.48594307	      9.40472756	     -4.30524851	     46.15550021	      0.80556545	     18.50587163	     -3.42362684	      0.00000000	     13.87645415	    -10.90196512	     -1.38973823	    106.73169382	      1.86281947	    -11.99800451	    -12.35253455	      0.00000000
     22.65333333	     -3.47086962	     -6.24190547	      1.26750456	      2.26400080	      0.94470677	      0.98931255	     25.34172668	      9.38324026	     -4.36101620	     46.98890748	      0.82011115	     20.41142677	     -2.79577081	      0.00000000	     16.18723801	    -10.97546124	     -0.73536112	    108.27645715	      1.88978068	    -11.02457117	    -11.71187313	      0.00000000
     22.66000000	     -3.34738482	     -6.21332137	      1.41005262	      2.26182025	      0.94273307	      0.98932187	     23.88083129	      9.46039986	     -4.23474114	     47.35191775	      0.82644687	     22.05797360	     -2.42723430	      0.00000000	     18.44782365	    -11.01180350	     -0.12138249	    109.46193973	      1.91047125	    -10.08937671	    -10.93715363	      0.00000000
     22.66666667	     -3.25131554	     -6.10283712	      1.54950681	      2.25974707	      0.94143651	      0.98932397	     22.23982969	      9.43590868	     -4.12700975	     47.35924993	      0.82657484	     23.52610896	     -1.93415628	      0.00000000	     20.72562914	    -10.88710406	      0.43434347	    110.27719515	      1.92470015	     -9.13046528	    -10.13313756	      0.00000000
     22.67333333	     -3.16132331	     -5.93993461	      1.67389151	      2.25791515	      0.94083706	      0.98933232	     20.40294358	      9.36829236	     -3.98564132	     47.01262738	      0.82052514	     24.71949009	     -1.43515440	      0.00000000	     22.94262936	    -10.65756788	      0.89807420	    110.70502657	      1.93216721	     -8.17354998	     -9.29694810	      0.00000000
     22.68000000	     -3.17944094	     -5.57579764	      1.65074150	      2.25635151	      0.94102916	      0.98945951	     18.49210899	      9.18796255	     -3.51357042	     46.33723838	      0.80873738	     25.44929387	     -1.21383335	      0.00000000	     25.09747668	    -10.17366338	      1.06088555	    110.64013122	      1.93103457	     -7.61319316	     -9.10849138	      0.00000000
